<svg data-v-fde0c5aa="" xmlns="http://www.w3.org/2000/svg" viewBox="0 0 300 300" class="font"><!----><defs data-v-fde0c5aa=""><!----></defs><rect data-v-fde0c5aa="" fill="#102A43" x="0" y="0" width="300px" height="300px" class="logo-background-square"></rect><defs data-v-fde0c5aa=""><!----></defs><g data-v-fde0c5aa="" id="3aae6a41-5144-4936-b2c8-1603307ed0ee" fill="#BCCCDC" transform="matrix(2.462778411401747,0,0,2.462778411401747,39.75372215518998,121.41945648870896)"><path d="M2.65 13.02L2.65 13.02L2.65 13.02Q3.72 10.77 5.45 7.42L5.45 7.42L5.45 7.42Q6.13 6.08 6.78 5.54L6.78 5.54L6.78 5.54Q6.99 5.36 8.81 4.34L8.81 4.34L8.81 4.34Q9.07 4.19 9.34 4.02L9.34 4.02L9.34 4.02Q9.66 3.85 9.93 3.85L9.93 3.85L9.93 4.06L9.93 4.06Q9.30 4.54 9.09 5.18L9.09 5.18L9.09 5.18Q8.93 5.66 8.93 6.61L8.93 6.61L8.93 6.61Q8.93 9.37 10.35 12.46L10.35 12.46L10.35 12.46Q10.42 12.61 11.00 13.41L11.00 13.41L11.00 13.41Q11.48 14.06 11.48 14.34L11.48 14.34L11.48 14.34Q11.48 14.98 10.81 15.30L10.81 15.30L10.81 15.30Q10.29 15.55 9.56 15.55L9.56 15.55L9.56 15.55Q8.68 15.55 8.06 14.15L8.06 14.15L8.06 14.15Q7.92 13.82 7.41 12.04L7.41 12.04L7.41 12.04Q7.25 12.12 5.96 12.56L5.96 12.56L5.96 12.56Q4.76 12.96 4.75 13.02L4.75 13.02L4.05 15.12L4.05 15.12Q3.96 15.26 3.77 15.40L3.77 15.40L0.55 17.64L0.55 17.64Q0.31 17.81 0.10 17.81L0.10 17.81L0.10 17.81Q0.10 17.50 0.52 17.00L0.52 17.00L0.52 17.00Q1.04 16.37 1.11 16.24L1.11 16.24L1.11 16.24Q1.86 14.80 2.51 13.44L2.51 13.44L2.51 13.44Q2.60 13.23 2.65 13.02ZM6.43 8.54L6.43 8.54L6.43 8.54Q6.33 8.58 5.88 9.72L5.88 9.72L5.88 9.72Q5.43 10.85 5.43 11.06L5.43 11.06L6.99 11.06L6.99 11.06Q7.01 11.06 7.07 10.94L7.07 10.94L7.07 10.94Q7.13 10.82 7.13 10.78L7.13 10.78L7.13 10.78Q7.13 10.58 6.82 9.58L6.82 9.58L6.82 9.58Q6.51 8.58 6.43 8.54ZM14.78 5.24L15.23 5.24L15.23 5.24Q15.23 5.26 15.22 5.31L15.22 5.31L15.22 5.31Q15.20 5.35 15.20 5.38L15.20 5.38L15.06 5.66L15.06 5.66Q14.97 5.84 14.78 6.36L14.78 6.36L14.78 12.94L14.78 12.94Q14.92 13.59 14.92 13.92L14.92 13.92L14.92 14L14.92 14Q14.92 14.34 13.64 15.26L13.64 15.26L13.64 15.26Q12.35 16.18 11.94 16.18L11.94 16.18L11.94 16.18Q11.94 15.78 12.24 14.99L12.24 14.99L12.24 14.99Q12.54 14.20 12.54 13.78L12.54 13.78L12.54 6.78L12.54 6.78Q12.70 6.64 13.10 6.36L13.10 6.36L13.10 6.36Q14.52 5.39 14.78 5.24L14.78 5.24ZM21.27 13.41L21.27 13.41L16.98 13.44L16.98 13.44Q16.55 13.38 16.20 12.84L16.20 12.84L16.20 12.84Q16.13 12.73 16.13 12.54L16.13 12.54L16.13 12.54Q16.13 12.07 16.35 11.70L16.35 11.70L16.35 11.70Q16.62 11.28 17.07 11.28L17.07 11.28L17.07 11.28Q18.44 11.28 18.44 11.28L18.44 11.28L21.27 11.30L21.27 11.30Q21.60 11.30 21.78 11.75L21.78 11.75L21.78 11.75Q21.92 12.10 21.92 12.49L21.92 12.49L21.92 12.49Q21.92 12.74 21.71 13.08L21.71 13.08L21.71 13.08Q21.50 13.41 21.27 13.41ZM25.23 10.37L25.23 10.37L25.23 10.37Q25.23 8.81 25.07 7.74L25.07 7.74L25.07 7.74Q25.06 7.74 25.05 7.73L25.05 7.73L25.00 7.73L25.00 7.73Q24.63 7.73 23.82 8.74L23.82 8.74L23.82 8.74Q23.02 9.74 22.82 9.74L22.82 9.74L22.82 9.74Q22.82 9.17 23.07 8.57L23.07 8.57L23.07 8.57Q23.21 8.27 23.53 7.46L23.53 7.46L23.81 6.62L23.81 6.62Q23.93 6.36 25.95 5.41L25.95 5.41L25.95 5.41Q27.97 4.47 28.38 4.47L28.38 4.47L28.38 4.47Q28.38 4.68 28.10 5.03L28.10 5.03L28.10 5.03Q27.82 5.38 27.82 5.70L27.82 5.70L27.82 5.70Q30.17 5.70 31.72 6.78L31.72 6.78L31.72 6.78Q33.49 8.01 33.49 10.26L33.49 10.26L33.49 10.26Q33.49 12.43 31.84 13.94L31.84 13.94L31.84 13.94Q30.18 15.46 28 15.46L28 15.46L28 15.46Q27.64 15.46 26.91 15.37L26.91 15.37L26.91 15.37Q26.19 15.29 25.83 15.29L25.83 15.29L25.83 15.29Q25.65 15.29 25.30 15.39L25.30 15.39L25.30 15.39Q24.96 15.48 24.78 15.48L24.78 15.48L24.78 15.48Q24.78 15.16 24.91 14.62L24.91 14.62L24.91 14.62Q25.05 13.99 25.07 13.76L25.07 13.76L25.07 13.76Q25.23 12.33 25.23 10.37ZM27.86 7.03L27.86 7.03L27.86 7.03Q27.45 7.03 27.45 7.18L27.45 7.18L27.45 13.06L27.45 13.06Q27.45 13.38 28.17 13.61L28.17 13.61L28.17 13.61Q28.71 13.78 29.13 13.78L29.13 13.78L29.13 13.78Q31.37 13.78 31.37 11.17L31.37 11.17L31.37 11.17Q31.37 9.70 30.37 8.41L30.37 8.41L30.37 8.41Q29.29 7.03 27.86 7.03ZM34.26 12.45L34.26 12.45L34.26 12.45Q34.26 10.70 35.34 9.34L35.34 9.34L35.34 9.34Q36.48 7.87 38.19 7.87L38.19 7.87L38.19 7.87Q39.58 7.87 40.26 8.85L40.26 8.85L40.26 8.85Q40.87 9.70 40.87 11.13L40.87 11.13L40.87 11.13Q40.87 12.68 39.93 14L39.93 14L39.93 14Q38.89 15.46 37.35 15.46L37.35 15.46L37.35 15.46Q36.20 15.46 35.23 14.52L35.23 14.52L35.23 14.52Q34.26 13.58 34.26 12.45ZM36.20 11.28L36.20 11.28L36.20 11.28Q36.20 12.46 37.77 13.76L37.77 13.76L37.95 13.76L37.95 13.76Q38.09 13.78 38.12 13.78L38.12 13.78L38.12 13.78Q38.61 13.78 38.85 13.26L38.85 13.26L38.85 13.26Q39.03 12.87 39.03 12.31L39.03 12.31L39.03 12.31Q39.03 11.34 38.72 10.58L38.72 10.58L38.72 10.58Q38.29 9.53 37.48 9.53L37.48 9.53L37.48 9.53Q37.13 9.53 36.95 10.04L36.95 10.04L36.95 10.04Q36.89 10.30 36.75 10.84L36.75 10.84L36.75 10.84Q36.62 11.28 36.20 11.28ZM41.62 12.84L41.62 12.84L41.62 12.84Q41.62 11.16 42.87 9.58L42.87 9.58L42.87 9.58Q44.20 7.90 45.85 7.90L45.85 7.90L45.85 7.90Q46.42 7.90 46.83 8.22L46.83 8.22L46.83 8.22Q47.24 8.54 47.24 9.10L47.24 9.10L47.24 9.17L47.24 9.17Q46.96 10.02 46.12 11.13L46.12 11.13L46.12 11.13Q45.37 12.11 45.28 12.11L45.28 12.11L44.97 12.11L44.97 12.11Q44.97 11.87 45.12 11.41L45.12 11.41L45.12 11.41Q45.28 10.95 45.28 10.71L45.28 10.71L45.28 10.71Q45.28 10.30 45.02 10.01L45.02 10.01L45.02 10.01Q44.76 9.72 44.37 9.72L44.37 9.72L44.37 9.72Q43.78 9.72 43.57 10.26L43.57 10.26L43.57 10.26Q43.44 10.60 43.44 11.31L43.44 11.31L43.44 11.31Q43.44 12.17 43.89 12.66L43.89 12.66L43.89 12.66Q44.25 13.05 45.14 13.37L45.14 13.37L45.35 13.38L45.35 13.38Q45.37 13.38 45.56 13.37L45.56 13.37L46.54 12.95L46.54 12.95Q46.59 12.94 46.62 12.94L46.62 12.94L46.62 12.94Q46.83 12.94 46.83 13.37L46.83 13.37L46.83 13.37Q46.83 14.06 45.72 14.87L45.72 14.87L45.72 14.87Q44.67 15.62 43.95 15.62L43.95 15.62L43.95 15.62Q43.19 15.62 43.04 15.47L43.04 15.47L41.92 14.35L41.92 14.35Q41.62 14.06 41.62 12.84ZM48.92 10.22L48.92 10.22L48.92 10.22Q48.92 8.97 48.90 8.75L48.90 8.75L48.90 8.75Q48.86 8.08 48.62 7.32L48.62 7.32L48.62 7.32Q48.50 7.13 48.34 6.90L48.34 6.90L48.33 6.75L48.33 6.75Q48.33 6.44 51.28 5.49L51.28 5.49L51.28 5.49Q51.58 5.49 51.58 5.71L51.58 5.71L51.58 5.71Q51.58 5.78 51.44 5.96L51.44 5.96L51.44 5.96Q51.30 6.15 51.28 6.20L51.28 6.20L51.28 6.20Q51.13 8.18 51.13 9.03L51.13 9.03L51.13 9.03Q51.13 9.09 51.14 9.42L51.14 9.42L51.28 9.56L51.49 9.56L51.49 9.56Q51.58 9.56 51.67 9.58L51.67 9.58L51.79 9.58L51.79 9.58Q52.67 9.58 52.86 9.49L52.86 9.49L52.86 9.49Q53.26 9.32 53.26 8.65L53.26 8.65L53.26 8.65Q53.26 8.27 53.10 7.53L53.10 7.53L53.10 7.53Q52.95 6.78 52.95 6.40L52.95 6.40L52.95 6.40Q52.95 5.96 54.26 5.42L54.26 5.42L54.26 5.42Q55.45 4.93 56.07 4.93L56.07 4.93L56.07 4.93Q56.07 5.40 55.85 6.34L55.85 6.34L55.85 6.34Q55.62 7.27 55.62 7.74L55.62 7.74L55.62 14.60L55.34 14.88L53.38 15.72L53.38 15.72Q52.51 16.20 52.23 16.20L52.23 16.20L52.23 16.20Q52.23 15.90 52.47 15.47L52.47 15.47L52.47 15.47Q52.77 14.92 52.82 14.74L52.82 14.74L52.82 14.74Q53.24 13.24 53.24 11.30L53.24 11.30L53.24 11.30Q53.24 11.10 52.85 11.10L52.85 11.10L52.54 11.10L52.54 11.10Q51.56 11.10 51.28 11.24L51.28 11.24L51.07 11.38L51.07 15.16L49.88 15.86L49.88 15.86Q49.45 16.16 49 16.44L49 16.44L49 16.44Q48.47 16.76 48.02 16.76L48.02 16.76L48.02 16.76Q48.02 16.38 48.29 15.68L48.29 15.68L48.29 15.68Q48.58 14.91 48.62 14.60L48.62 14.60L48.62 14.60Q48.87 12.80 48.90 11.80L48.90 11.80L48.90 11.80Q48.92 11.33 48.92 10.22ZM56.91 12.82L56.91 12.82L56.91 12.82Q56.91 11.07 58.25 9.75L58.25 9.75L58.25 9.75Q59.58 8.43 61.33 8.43L61.33 8.43L61.33 8.43Q61.99 8.43 62.27 8.68L62.27 8.68L62.27 8.68Q62.54 8.93 62.54 9.58L62.54 9.58L62.54 9.58Q62.54 10.50 61.49 11.28L61.49 11.28L61.49 11.28Q60.61 11.82 59.72 12.36L59.72 12.36L59.58 12.50L59.58 12.50Q59.58 12.53 59.57 12.57L59.57 12.57L59.57 12.57Q59.57 12.80 59.89 13.05L59.89 13.05L59.89 13.05Q60.16 13.26 60.42 13.34L60.42 13.34L60.49 13.34L60.49 13.34Q60.91 13.34 61.78 12.69L61.78 12.69L61.78 12.69Q62.65 12.04 62.83 12.04L62.83 12.04L62.83 12.04Q62.83 13.23 61.60 14.34L61.60 14.34L61.60 14.34Q60.37 15.46 59.16 15.46L59.16 15.46L59.16 15.46Q58.11 15.46 57.48 14.64L57.48 14.64L57.48 14.64Q56.91 13.90 56.91 12.82ZM59.44 10.12L59.44 10.12L59.44 10.12Q58.94 10.81 58.94 11.56L58.94 11.56L58.94 11.56Q59.22 11.56 59.62 11.14L59.62 11.14L59.62 11.14Q60.02 10.71 60.02 10.42L60.02 10.42L60.02 10.42Q60.02 10.11 59.65 10.11L59.65 10.11L59.56 10.11L59.56 10.11Q59.46 10.12 59.44 10.12ZM63.56 10.74L63.56 10.74L63.56 10.74Q63.56 8.82 64.61 7.13L64.61 7.13L64.61 7.13Q65.63 5.47 67.34 4.52L67.34 4.52L67.34 4.52Q67.38 4.52 67.48 4.51L67.48 4.51L67.48 4.51Q67.58 4.49 67.62 4.49L67.62 4.49L67.62 4.49Q68.07 4.49 68.29 5.05L68.29 5.05L68.29 5.05Q68.46 5.46 68.46 5.99L68.46 5.99L68.46 5.99Q68.46 7.41 67.70 8.69L67.70 8.69L67.70 8.69Q67.24 9.48 65.94 10.96L65.94 10.96L65.94 11.17L65.94 11.17Q65.94 11.69 66.08 12.21L66.08 12.21L66.08 12.21Q66.28 12.94 66.64 12.94L66.64 12.94L66.64 12.94Q66.88 12.94 67.06 12.78L67.06 12.78L67.06 12.78Q67.69 12.24 68.18 11.66L68.18 11.66L68.45 11.66L68.45 11.66Q68.45 12.99 67.76 14.13L67.76 14.13L67.76 14.13Q66.96 15.46 65.66 15.46L65.66 15.46L65.66 15.46Q64.51 15.46 63.94 13.47L63.94 13.47L63.94 13.47Q63.56 12.15 63.56 10.74ZM66.29 6.73L66.29 6.73L66.29 6.73Q66.15 6.73 65.97 7.73L65.97 7.73L65.97 7.73Q65.76 8.88 65.76 9.98L65.76 9.98L65.94 9.98L65.94 9.98Q66.12 9.98 66.33 9.09L66.33 9.09L66.33 9.09Q66.51 8.30 66.51 7.99L66.51 7.99L66.51 7.99Q66.51 7.11 66.36 6.76L66.36 6.76L66.36 6.76Q66.33 6.73 66.29 6.73ZM70.04 12.64L70.04 12.64L70.04 11.73L70.04 11.73Q70.04 11.70 70.03 11.12L70.03 11.12L70.03 11.12Q70.03 10.96 70.03 10.82L70.03 10.82L70.03 10.82Q69.73 10.39 69.73 10.12L69.73 10.12L69.73 10.12Q69.73 9.72 71.08 9.03L71.08 9.03L71.08 9.03Q72.35 8.39 72.87 8.39L72.87 8.39L72.87 8.39Q72.87 8.55 72.73 8.83L72.73 8.83L72.73 8.83Q72.58 9.16 72.55 9.28L72.55 9.28L72.59 9.28L72.59 9.28Q72.60 9.30 72.62 9.30L72.62 9.30L72.62 9.30Q72.14 9.30 73.23 8.87L73.23 8.87L73.23 8.87Q74.31 8.44 74.58 8.44L74.58 8.44L74.58 8.44Q75.53 8.44 76.06 9.41L76.06 9.41L76.06 9.41Q76.48 10.18 76.48 11.19L76.48 11.19L76.48 11.19Q76.48 12.85 75.47 14.10L75.47 14.10L75.47 14.10Q74.38 15.44 72.76 15.44L72.76 15.44L72.69 15.44L72.69 15.44Q72.45 15.40 72.27 15.30L72.27 15.30L72.27 15.30Q72.11 15.97 71.86 17.04L71.86 17.04L71.86 17.04Q71.65 17.89 70.87 18.52L70.87 18.52L70.87 18.52Q69.82 19.36 69.61 19.36L69.61 19.36L69.43 19.36L69.43 19.36Q69.43 18.73 69.61 17.74L69.61 17.74L69.61 17.74Q69.86 16.34 69.89 16.14L69.89 16.14L69.89 16.14Q70.04 14.83 70.04 12.64ZM73.11 10.53L73.11 10.53L73.11 10.53Q72.81 10.53 72.56 10.67L72.56 10.67L72.56 10.67Q72.27 10.84 72.27 11.10L72.27 11.10L72.27 13.06L72.27 13.06Q72.27 13.51 72.79 13.86L72.79 13.86L72.79 13.86Q73.26 14.18 73.74 14.18L73.74 14.18L73.74 14.18Q74.10 14.18 74.34 13.47L74.34 13.47L74.34 13.47Q74.51 12.96 74.51 12.50L74.51 12.50L74.51 12.50Q74.51 11.80 74.16 11.21L74.16 11.21L74.16 11.21Q73.77 10.53 73.11 10.53ZM77.01 12.82L77.01 12.82L77.01 12.82Q77.01 11.07 78.35 9.75L78.35 9.75L78.35 9.75Q79.69 8.43 81.44 8.43L81.44 8.43L81.44 8.43Q82.10 8.43 82.37 8.68L82.37 8.68L82.37 8.68Q82.64 8.93 82.64 9.58L82.64 9.58L82.64 9.58Q82.64 10.50 81.59 11.28L81.59 11.28L81.59 11.28Q80.71 11.82 79.83 12.36L79.83 12.36L79.69 12.50L79.69 12.50Q79.69 12.53 79.67 12.57L79.67 12.57L79.67 12.57Q79.67 12.80 80.00 13.05L80.00 13.05L80.00 13.05Q80.26 13.26 80.53 13.34L80.53 13.34L80.60 13.34L80.60 13.34Q81.02 13.34 81.89 12.69L81.89 12.69L81.89 12.69Q82.75 12.04 82.94 12.04L82.94 12.04L82.94 12.04Q82.94 13.23 81.70 14.34L81.70 14.34L81.70 14.34Q80.47 15.46 79.27 15.46L79.27 15.46L79.27 15.46Q78.22 15.46 77.59 14.64L77.59 14.64L77.59 14.64Q77.01 13.90 77.01 12.82ZM79.55 10.12L79.55 10.12L79.55 10.12Q79.04 10.81 79.04 11.56L79.04 11.56L79.04 11.56Q79.32 11.56 79.72 11.14L79.72 11.14L79.72 11.14Q80.12 10.71 80.12 10.42L80.12 10.42L80.12 10.42Q80.12 10.11 79.76 10.11L79.76 10.11L79.66 10.11L79.66 10.11Q79.56 10.12 79.55 10.12ZM83.83 15.23L83.83 15.23L83.83 15.16L83.97 14.74L83.97 14.74Q84.00 14.64 84.11 14.18L84.11 14.18L84.11 10.12L84.11 10.12Q84.01 9.84 83.97 9.56L83.97 9.56L83.97 9.28L83.97 9.28Q84.74 8.82 85.65 8.30L85.65 8.30L85.65 8.30Q86.49 7.83 86.77 7.83L86.77 7.83L86.77 8.57L86.91 8.57L86.91 8.57Q87.04 8.58 87.05 8.58L87.05 8.58L88.31 8.44L88.31 8.44Q89.11 8.61 89.43 8.72L89.43 8.72L89.43 9.00L89.43 9.00Q88.00 9.13 86.77 10.68L86.77 10.68L86.63 11.10L86.63 11.10Q86.49 11.31 86.42 11.38L86.42 11.38L86.42 14.04L84.25 15.44L84.11 15.46L84.11 15.46Q83.83 15.46 83.83 15.23Z"></path></g><!----><!----></svg>