<?xml version="1.0" encoding="UTF-8" standalone="no"?>
<svg
   xmlns:dc="http://purl.org/dc/elements/1.1/"
   xmlns:cc="http://creativecommons.org/ns#"
   xmlns:rdf="http://www.w3.org/1999/02/22-rdf-syntax-ns#"
   xmlns:svg="http://www.w3.org/2000/svg"
   xmlns="http://www.w3.org/2000/svg"
   id="svg206"
   xml:space="preserve"
   viewBox="0 0 550 445"
   height="445"
   width="550"
   version="1.1"><metadata
     id="metadata210"><rdf:RDF><cc:Work
         rdf:about=""><dc:format>image/svg+xml</dc:format><dc:type
           rdf:resource="http://purl.org/dc/dcmitype/StillImage" /></cc:Work></rdf:RDF></metadata><defs
     id="defs4"><style
       id="style2"
       type="text/css">@import url(&quot;https://fonts.googleapis.com/css2?family=Princess+Sofia:wght@400&quot;);</style></defs><defs
     id="defs6" /><g
     id="container-filled"
     transform="matrix(1 0 0 1 68.24 222.5)"><linearGradient
       y2="1.2"
       x2="0"
       y1="0"
       x1="0"
       gradientTransform="matrix(1 0 0 1 -60 -60)"
       gradientUnits="userSpaceOnUse"
       id="SVGID_4"><stop
         id="stop8"
         style="stop-color:rgb(188,204,220);stop-opacity: 1"
         offset="0%" /></linearGradient><circle
       id="circle11"
       r="60"
       cy="0"
       cx="0"
       style="stroke: none; stroke-width: 1; stroke-dasharray: none; stroke-linecap: butt; stroke-dashoffset: 0; stroke-linejoin: miter; stroke-miterlimit: 4; fill: #ffffff; fill-rule: nonzero; opacity: 1;" /></g><g
     id="icon"
     transform="matrix(0.2 0 0 0.2 68.24 222.5)"><g
       id="g195"
       style=""><g
         id="icon_piece"
         transform="matrix(1 0 0 1 -157.36 -68.87)"><linearGradient
           y2="91.69332582183372"
           x2="71.46400000000003"
           y1="0"
           x1="0"
           gradientTransform="matrix(1 0 0 1 62.9 141.28)"
           gradientUnits="userSpaceOnUse"
           id="SVGID_6"><stop
             id="stop14"
             style="stop-color:rgb(221,218,236);stop-opacity: 1"
             offset="0%" /></linearGradient><path
           id="path17"
           stroke-linecap="round"
           d="m 62.903 224.904 c 10.287 10.116 23.992 12.566 40.063 -3.533 c 5.756 -20.175 16.213 -39.295 31.401 -55.623 l -7.608 -24.449 c -0.028 -0.057 -21.713 0.029 -21.741 0 c -22.083 24.306 -36.102 53.315 -42.115 83.605 z"
           transform=" translate(-98.64, -187.13)"
           style="stroke: none; stroke-width: 1; stroke-dasharray: none; stroke-linecap: butt; stroke-dashoffset: 0; stroke-linejoin: miter; stroke-miterlimit: 4; fill: #000000; fill-rule: evenodd; opacity: 1;" /></g><g
         id="g25"
         transform="matrix(1 0 0 1 -112.36 120.52)"><linearGradient
           y2="106.87646159124301"
           x2="131.6675126353659"
           y1="0"
           x1="0"
           gradientTransform="matrix(1 0 0 1 77.81 323.08)"
           gradientUnits="userSpaceOnUse"
           id="SVGID_7"><stop
             id="stop20"
             style="stop-color:rgb(221,218,236);stop-opacity: 1"
             offset="0%" /></linearGradient><path
           id="path23"
           stroke-linecap="round"
           d="m 110.945 383.224 c 23.964 23.965 53.142 39.523 83.888 46.732 c 15.843 -8.492 21.684 -22.91 2.906 -38.64 c -21.912 -6.155 -42.571 -17.838 -59.81 -35.078 c -8.035 -8.036 -14.874 -16.812 -20.488 -26.102 c -14.846 -11.37 -28.922 -8.976 -39.636 7.01 c 8.236 16.642 19.292 32.229 33.14 46.078 z"
           transform=" translate(-143.64, -376.52)"
           style="stroke: none; stroke-width: 1; stroke-dasharray: none; stroke-linecap: butt; stroke-dashoffset: 0; stroke-linejoin: miter; stroke-miterlimit: 4; fill: #000000; fill-rule: evenodd; opacity: 1;" /></g><g
         id="g32"
         transform="matrix(1 0 0 1 -21.02 164.17)"><linearGradient
           y2="108.02699999999999"
           x2="80.297"
           y1="0"
           x1="0"
           gradientTransform="matrix(1 0 0 1 194.83 366.15)"
           gradientUnits="userSpaceOnUse"
           id="SVGID_8"><stop
             id="stop27"
             style="stop-color:rgb(54,94,125);stop-opacity: 1"
             offset="0%" /></linearGradient><path
           id="path30"
           stroke-linecap="round"
           d="m 194.833 429.956 v 33.026 l 40.177 11.199 l 40.12 -11.199 v -32.998 v -23.68 c 0 -5.272 -1.026 -10.344 -2.906 -14.96 c -5.955 -14.732 -20.431 -25.19 -37.242 -25.19 c -16.783 0 -31.258 10.458 -37.242 25.161 c -1.881 4.645 -2.906 9.688 -2.906 14.989 v 23.652 z"
           transform=" translate(-234.98, -420.17)"
           style="stroke: none; stroke-width: 1; stroke-dasharray: none; stroke-linecap: butt; stroke-dashoffset: 0; stroke-linejoin: miter; stroke-miterlimit: 4; fill: #000000; fill-rule: evenodd; opacity: 1;" /></g><g
         id="g39"
         transform="matrix(1 0 0 1 74.67 118.92)"><linearGradient
           y2="110.13499999999999"
           x2="128.04995266411913"
           y1="0"
           x1="0"
           gradientTransform="matrix(1 0 0 1 266.64 319.85)"
           gradientUnits="userSpaceOnUse"
           id="SVGID_9"><stop
             id="stop34"
             style="stop-color:rgb(221,218,236);stop-opacity: 1"
             offset="0%" /></linearGradient><path
           id="path37"
           stroke-linecap="round"
           d="m 275.131 429.985 c 30.774 -7.209 59.981 -22.768 83.945 -46.761 c 15.302 -15.302 27.155 -32.684 35.618 -51.263 l -23.223 -12.111 l -20.003 12.111 c -5.385 8.634 -11.854 16.784 -19.348 24.278 c -17.268 17.268 -37.955 28.951 -59.896 35.106 c -9.46 10.002 -5.813 26.273 2.907 38.64 z"
           transform=" translate(-330.67, -374.92)"
           style="stroke: none; stroke-width: 1; stroke-dasharray: none; stroke-linecap: butt; stroke-dashoffset: 0; stroke-linejoin: miter; stroke-miterlimit: 4; fill: #000000; fill-rule: evenodd; opacity: 1;" /></g><g
         id="g46"
         transform="matrix(1 0 0 1 -157.21 -184.96)"><linearGradient
           y2="63.402"
           x2="64.198"
           y1="0"
           x1="0"
           gradientTransform="matrix(1 0 0 1 66.69 39.34)"
           gradientUnits="userSpaceOnUse"
           id="SVGID_10"><stop
             id="stop41"
             style="stop-color:rgb(188,204,220);stop-opacity: 1"
             offset="0%" /></linearGradient><path
           id="path44"
           stroke-linecap="round"
           d="m 66.693 71.628 l 37.299 31.117 l 22.768 -9.917 l 4.131 -22.34 l -37.299 -31.145 l -20.887 10.914 z"
           transform=" translate(-98.79, -71.04)"
           style="stroke: none; stroke-width: 1; stroke-dasharray: none; stroke-linecap: butt; stroke-dashoffset: 0; stroke-linejoin: miter; stroke-miterlimit: 4; fill: #000000; fill-rule: evenodd; opacity: 1;" /></g><g
         id="g53"
         transform="matrix(1 0 0 1 -21.02 227.74)"><linearGradient
           y2="41.51800000000003"
           x2="379.03499999999997"
           y1="0"
           x1="0"
           gradientTransform="matrix(1 0 0 1 45.46 462.98)"
           gradientUnits="userSpaceOnUse"
           id="SVGID_11"><stop
             id="stop48"
             style="stop-color:rgb(159,179,200);stop-opacity: 1"
             offset="0%" /></linearGradient><path
           id="path51"
           stroke-linecap="round"
           d="m 194.833 462.982 h -141.675 c -4.217 0 -7.694 3.476 -7.694 7.694 v 26.13 c 0 4.217 3.476 7.694 7.694 7.694 h 363.647 c 4.217 0 7.694 -3.476 7.694 -7.694 v -26.13 c 0 -4.217 -3.476 -7.694 -7.694 -7.694 h -141.674 z"
           transform=" translate(-234.98, -483.74)"
           style="stroke: none; stroke-width: 1; stroke-dasharray: none; stroke-linecap: butt; stroke-dashoffset: 0; stroke-linejoin: miter; stroke-miterlimit: 4; fill: #000000; fill-rule: evenodd; opacity: 1;" /></g><g
         id="g60"
         transform="matrix(1 0 0 1 -188.01 -210.65)"><linearGradient
           y2="75.66987871263841"
           x2="68.38875742527684"
           y1="0"
           x1="0"
           gradientTransform="matrix(1 0 0 1 33.8 7.51)"
           gradientUnits="userSpaceOnUse"
           id="SVGID_12"><stop
             id="stop55"
             style="stop-color:rgb(159,179,200);stop-opacity: 1"
             offset="0%" /></linearGradient><path
           id="path58"
           stroke-linecap="round"
           d="m 74.216 13.184 l -36.758 44.054 c -5.585 6.696 -4.673 16.727 1.995 22.283 c 6.696 5.585 16.726 4.673 22.311 -1.995 l 4.93 -5.899 l 26.899 -32.285 l 4.93 -5.899 c 5.585 -6.668 4.673 -16.698 -1.995 -22.283 c -2.963 -2.451 -6.554 -3.647 -10.116 -3.647 h -0.028 c -4.532 0.001 -9.034 1.938 -12.168 5.671 z"
           transform=" translate(-67.99, -45.35)"
           style="stroke: none; stroke-width: 1; stroke-dasharray: none; stroke-linecap: butt; stroke-dashoffset: 0; stroke-linejoin: miter; stroke-miterlimit: 4; fill: #000000; fill-rule: evenodd; opacity: 1;" /></g><g
         id="g67"
         transform="matrix(1 0 0 1 29.64 -29.96)"><linearGradient
           y2="48.93828178518558"
           x2="50.42598085497548"
           y1="0"
           x1="0"
           gradientTransform="matrix(1 0 0 1 260.43 201.57)"
           gradientUnits="userSpaceOnUse"
           id="SVGID_13"><stop
             id="stop62"
             style="stop-color:rgb(54,94,125);stop-opacity: 1"
             offset="0%" /></linearGradient><path
           id="path65"
           stroke-linecap="round"
           d="m 283.821 201.567 l -22.739 5.329 l -0.655 22.711 l 20.231 16.869 c 7.722 6.44 18.607 4.787 25.702 -2.308 s 5.385 -19.291 -2.308 -25.703 z"
           transform=" translate(-285.64, -226.04)"
           style="stroke: none; stroke-width: 1; stroke-dasharray: none; stroke-linecap: butt; stroke-dashoffset: 0; stroke-linejoin: miter; stroke-miterlimit: 4; fill: #000000; fill-rule: evenodd; opacity: 1;" /></g><g
         id="g74"
         transform="matrix(1 0 0 1 0.3 -54.09)"><linearGradient
           y2="79.55751364472377"
           x2="73.3435136447238"
           y1="0"
           x1="0"
           gradientTransform="matrix(1 0 0 1 219.62 162.13)"
           gradientUnits="userSpaceOnUse"
           id="SVGID_14"><stop
             id="stop69"
             style="stop-color:rgb(188,204,220);stop-opacity: 1"
             offset="0%" /></linearGradient><path
           id="path72"
           stroke-linecap="round"
           d="m 235.153 238.525 c 5.784 4.816 14.475 4.046 19.291 -1.738 l 5.984 -7.181 l 23.394 -28.039 l 5.984 -7.181 c 4.816 -5.756 4.046 -14.447 -1.738 -19.263 l -15.558 -12.994 l -37.499 14.59 l -15.387 48.841 z"
           transform=" translate(-256.3, -201.91)"
           style="stroke: none; stroke-width: 1; stroke-dasharray: none; stroke-linecap: butt; stroke-dashoffset: 0; stroke-linejoin: miter; stroke-miterlimit: 4; fill: #000000; fill-rule: evenodd; opacity: 1;" /></g><g
         id="g81"
         transform="matrix(1 0 0 1 -70.04 -111.56)"><linearGradient
           y2="171.3704078535809"
           x2="180.01363236180057"
           y1="0"
           x1="0"
           gradientTransform="matrix(1 0 0 1 95.95 58.76)"
           gradientUnits="userSpaceOnUse"
           id="SVGID_15"><stop
             id="stop76"
             style="stop-color:rgb(159,179,200);stop-opacity: 1"
             offset="0%" /></linearGradient><path
           id="path79"
           stroke-linecap="round"
           d="m 134.368 165.748 l 75.824 63.203 c 2.137 1.795 5.357 1.51 7.152 -0.655 l 2.28 -2.736 l 52.886 -63.431 l 2.28 -2.736 c 1.795 -2.166 1.51 -5.386 -0.655 -7.152 l -20.744 -17.297 l -84.315 -70.269 c -10.799 -9.033 -27.041 -7.551 -36.074 3.277 l -2.109 2.536 l -26.899 32.257 l -2.137 2.565 c -8.976 10.771 -7.551 26.928 3.163 35.99 c 9.316 8.263 19.716 16.412 29.348 24.448 z"
           transform=" translate(-185.96, -144.44)"
           style="stroke: none; stroke-width: 1; stroke-dasharray: none; stroke-linecap: butt; stroke-dashoffset: 0; stroke-linejoin: miter; stroke-miterlimit: 4; fill: #000000; fill-rule: evenodd; opacity: 1;" /></g><g
         id="g88"
         transform="matrix(1 0 0 1 111.81 54.29)"><linearGradient
           y2="43.34200000000004"
           x2="231.29000006372735"
           y1="0"
           x1="0"
           gradientTransform="matrix(1 0 0 1 252.16 288.62)"
           gradientUnits="userSpaceOnUse"
           id="SVGID_16"><stop
             id="stop83"
             style="stop-color:rgb(54,94,125);stop-opacity: 1"
             offset="0%" /></linearGradient><path
           id="path86"
           stroke-linecap="round"
           d="m 457.296 288.62 h -200.032 c -2.792 0 -5.101 2.508 -5.101 5.557 v 32.228 c 0 3.049 2.308 5.557 5.101 5.557 h 221.117 c 2.792 0 5.072 -2.508 5.072 -5.557 v -9.147 c 0.001 -15.758 -11.767 -28.638 -26.157 -28.638 z"
           transform=" translate(-367.81, -310.29)"
           style="stroke: none; stroke-width: 1; stroke-dasharray: none; stroke-linecap: butt; stroke-dashoffset: 0; stroke-linejoin: miter; stroke-miterlimit: 4; fill: #000000; fill-rule: evenodd; opacity: 1;" /></g><g
         id="g95"
         transform="matrix(1 0 0 1 194.73 54.29)"><linearGradient
           y2="43.341999999999985"
           x2="65.452"
           y1="0"
           x1="0"
           gradientTransform="matrix(1 0 0 1 418 288.62)"
           gradientUnits="userSpaceOnUse"
           id="SVGID_17"><stop
             id="stop90"
             style="stop-color:rgb(43,77,102);stop-opacity: 1"
             offset="0%" /></linearGradient><path
           id="path93"
           stroke-linecap="round"
           d="m 483.454 326.404 v -9.147 c 0 -4.018 -0.741 -7.836 -2.109 -11.284 c -4.046 -10.201 -13.307 -17.354 -24.049 -17.354 h -39.294 c 14.418 0 26.186 12.88 26.186 28.638 v 9.147 c 0 3.049 -2.28 5.557 -5.101 5.557 h 39.294 c 1.083 0 2.109 -0.399 2.963 -1.054 c 1.284 -0.998 2.11 -2.65 2.11 -4.503 z"
           transform=" translate(-450.73, -310.29)"
           style="stroke: none; stroke-width: 1; stroke-dasharray: none; stroke-linecap: butt; stroke-dashoffset: 0; stroke-linejoin: miter; stroke-miterlimit: 4; fill: #000000; fill-rule: evenodd; opacity: 1;" /></g><g
         id="g102"
         transform="matrix(1 0 0 1 -9.09 158.57)"><linearGradient
           y2="96.827"
           x2="56.447"
           y1="0"
           x1="0"
           gradientTransform="matrix(1 0 0 1 218.68 366.16)"
           gradientUnits="userSpaceOnUse"
           id="SVGID_18"><stop
             id="stop97"
             style="stop-color:rgb(43,77,102);stop-opacity: 1"
             offset="0%" /></linearGradient><path
           id="path100"
           stroke-linecap="round"
           d="m 275.131 406.305 c 0 -5.272 -1.026 -10.344 -2.906 -14.96 c -5.955 -14.732 -20.431 -25.19 -37.242 -25.19 c -5.784 0 -11.312 1.254 -16.299 3.476 c 9.489 4.246 17.068 12.053 20.972 21.713 c 1.881 4.616 2.906 9.688 2.906 14.96 v 23.68 v 32.998 h 32.569 v -32.998 z"
           transform=" translate(-246.91, -414.57)"
           style="stroke: none; stroke-width: 1; stroke-dasharray: none; stroke-linecap: butt; stroke-dashoffset: 0; stroke-linejoin: miter; stroke-miterlimit: 4; fill: #000000; fill-rule: evenodd; opacity: 1;" /></g><g
         id="g109"
         transform="matrix(1 0 0 1 148.37 227.74)"><linearGradient
           y2="41.51800000000003"
           x2="40.263000000000034"
           y1="0"
           x1="0"
           gradientTransform="matrix(1 0 0 1 384.24 462.98)"
           gradientUnits="userSpaceOnUse"
           id="SVGID_19"><stop
             id="stop104"
             style="stop-color:rgb(159,179,200);stop-opacity: 1"
             offset="0%" /></linearGradient><path
           id="path107"
           stroke-linecap="round"
           d="m 424.499 496.806 v -26.13 c 0 -4.217 -3.476 -7.694 -7.694 -7.694 h -32.569 c 4.217 0 7.694 3.476 7.694 7.694 v 26.13 c 0 4.217 -3.476 7.694 -7.694 7.694 h 32.569 c 4.217 0 7.694 -3.476 7.694 -7.694 z"
           transform=" translate(-404.37, -483.74)"
           style="stroke: none; stroke-width: 1; stroke-dasharray: none; stroke-linecap: butt; stroke-dashoffset: 0; stroke-linejoin: miter; stroke-miterlimit: 4; fill: #000000; fill-rule: evenodd; opacity: 1;" /></g><g
         id="g116"
         transform="matrix(1 0 0 1 -175.21 -226.63)"><linearGradient
           y2="43.711"
           x2="42.784878712638424"
           y1="0"
           x1="0"
           gradientTransform="matrix(1 0 0 1 59.4 7.51)"
           gradientUnits="userSpaceOnUse"
           id="SVGID_20"><stop
             id="stop111"
             style="stop-color:rgb(159,179,200);stop-opacity: 1"
             offset="0%" /></linearGradient><path
           id="path114"
           stroke-linecap="round"
           d="m 98.521 33.444 c 5.585 -6.668 4.673 -16.698 -1.995 -22.283 c -2.963 -2.451 -6.554 -3.647 -10.116 -3.647 h -0.028 c -4.531 0 -9.033 1.938 -12.167 5.671 l -14.817 17.752 c 3.106 -3.704 7.608 -5.614 12.139 -5.614 h 0.028 c 3.562 0 7.152 1.197 10.087 3.647 c 4.16 3.476 6.098 8.663 5.613 13.706 c -0.313 3.02 -1.482 6.012 -3.562 8.549 v -0.028 l 9.888 -11.854 z"
           transform=" translate(-80.79, -29.37)"
           style="stroke: none; stroke-width: 1; stroke-dasharray: none; stroke-linecap: butt; stroke-dashoffset: 0; stroke-linejoin: miter; stroke-miterlimit: 4; fill: #000000; fill-rule: evenodd; opacity: 1;" /></g><g
         id="g123"
         transform="matrix(1 0 0 1 -58.67 -136.65)"><linearGradient
           y2="121.17903090346519"
           x2="157.27137695011578"
           y1="0"
           x1="0"
           gradientTransform="matrix(1 0 0 1 118.69 58.76)"
           gradientUnits="userSpaceOnUse"
           id="SVGID_21"><stop
             id="stop118"
             style="stop-color:rgb(159,179,200);stop-opacity: 1"
             offset="0%" /></linearGradient><path
           id="path121"
           stroke-linecap="round"
           d="m 253.389 134.945 l -84.315 -70.269 c -10.799 -9.033 -27.041 -7.551 -36.074 3.277 l -2.109 2.536 l -12.196 14.647 c 3.02 -3.391 6.753 -5.813 10.828 -7.181 c 8.178 -2.793 17.61 -1.396 24.705 4.502 l 84.315 70.298 l 18.493 15.387 l 2.251 1.909 c 2.137 1.767 2.422 4.987 0.655 7.124 l -2.308 2.764 h 0.028 l 14.846 -17.81 l 2.28 -2.736 c 1.795 -2.166 1.51 -5.386 -0.655 -7.152 z"
           transform=" translate(-197.33, -119.35)"
           style="stroke: none; stroke-width: 1; stroke-dasharray: none; stroke-linecap: butt; stroke-dashoffset: 0; stroke-linejoin: miter; stroke-miterlimit: 4; fill: #000000; fill-rule: evenodd; opacity: 1;" /></g><g
         id="g130"
         transform="matrix(1 0 0 1 19.31 -68.84)"><linearGradient
           y2="50.066"
           x2="35.30351364472381"
           y1="0"
           x1="0"
           gradientTransform="matrix(1 0 0 1 257.66 162.13)"
           gradientUnits="userSpaceOnUse"
           id="SVGID_22"><stop
             id="stop125"
             style="stop-color:rgb(221,218,236);stop-opacity: 1"
             offset="0%" /></linearGradient><path
           id="path128"
           stroke-linecap="round"
           d="m 289.805 194.386 c 4.816 -5.756 4.046 -14.447 -1.738 -19.263 l -15.558 -12.994 l -14.846 17.81 l 15.558 12.994 c 3.077 2.565 4.73 6.24 4.873 9.973 c 0.142 3.277 -0.883 6.582 -3.134 9.289 l 0.028 -0.028 l 8.833 -10.6 z"
           transform=" translate(-275.31, -187.16)"
           style="stroke: none; stroke-width: 1; stroke-dasharray: none; stroke-linecap: butt; stroke-dashoffset: 0; stroke-linejoin: miter; stroke-miterlimit: 4; fill: #000000; fill-rule: evenodd; opacity: 1;" /></g><g
         id="g137"
         transform="matrix(1 0 0 1 36.91 -31.27)"><linearGradient
           y2="46.331999999999994"
           x2="35.893899714129816"
           y1="0"
           x1="0"
           gradientTransform="matrix(1 0 0 1 274.96 201.57)"
           gradientUnits="userSpaceOnUse"
           id="SVGID_23"><stop
             id="stop132"
             style="stop-color:rgb(43,77,102);stop-opacity: 1"
             offset="0%" /></linearGradient><path
           id="path135"
           stroke-linecap="round"
           d="m 274.988 212.167 s 0 0 -0.028 0.028 z m 29.064 6.297 l -20.231 -16.898 l -8.833 10.6 l -0.028 0.028 l 20.231 16.869 c 5.556 4.645 8.007 12.281 6.269 18.835 c 1.767 -0.997 3.419 -2.251 4.901 -3.733 c 7.095 -7.093 5.385 -19.289 -2.309 -25.701 z"
           transform=" translate(-292.91, -224.73)"
           style="stroke: none; stroke-width: 1; stroke-dasharray: none; stroke-linecap: butt; stroke-dashoffset: 0; stroke-linejoin: miter; stroke-miterlimit: 4; fill: #000000; fill-rule: evenodd; opacity: 1;" /></g><g
         id="g144"
         transform="matrix(1 0 0 1 -148.18 -195.78)"><linearGradient
           y2="41.74499999999999"
           x2="46.132000000000005"
           y1="0"
           x1="0"
           gradientTransform="matrix(1 0 0 1 84.76 39.34)"
           gradientUnits="userSpaceOnUse"
           id="SVGID_24"><stop
             id="stop139"
             style="stop-color:rgb(221,218,236);stop-opacity: 1"
             offset="0%" /></linearGradient><path
           id="path142"
           stroke-linecap="round"
           d="m 130.891 70.488 l -37.299 -31.145 l -8.833 10.629 l 37.299 31.116 h -0.029 z"
           transform=" translate(-107.82, -60.22)"
           style="stroke: none; stroke-width: 1; stroke-dasharray: none; stroke-linecap: butt; stroke-dashoffset: 0; stroke-linejoin: miter; stroke-miterlimit: 4; fill: #000000; fill-rule: evenodd; opacity: 1;" /></g><g
         id="g151"
         transform="matrix(1 0 0 1 -168.14 22.71)"><linearGradient
           y2="118.59966765919762"
           x2="118.58699999999999"
           y1="0"
           x1="0"
           gradientTransform="matrix(1 0 0 1 28.57 219.41)"
           gradientUnits="userSpaceOnUse"
           id="SVGID_25"><stop
             id="stop146"
             style="stop-color:rgb(54,94,125);stop-opacity: 1"
             offset="0%" /></linearGradient><path
           id="path149"
           stroke-linecap="round"
           d="m 45.921 320.648 c 9.004 9.004 20.203 14.504 31.885 16.499 c 13.421 2.308 27.497 -0.029 39.636 -7.01 c 4.417 -2.565 8.577 -5.728 12.338 -9.489 c 23.166 -23.167 23.166 -60.724 0 -83.862 c -7.694 -7.722 -16.983 -12.851 -26.813 -15.416 c -13.25 -3.505 -27.469 -2.308 -40.063 3.533 c -6.155 2.85 -11.911 6.81 -16.983 11.883 c -23.138 23.139 -23.138 60.696 0 83.862 z"
           transform=" translate(-87.86, -278.71)"
           style="stroke: none; stroke-width: 1; stroke-dasharray: none; stroke-linecap: butt; stroke-dashoffset: 0; stroke-linejoin: miter; stroke-miterlimit: 4; fill: #000000; fill-rule: evenodd; opacity: 1;" /></g><g
         id="g158"
         transform="matrix(1 0 0 1 -168.14 22.7)"><linearGradient
           y2="48.75449999999995"
           x2="48.74725000000002"
           y1="0"
           x1="0"
           gradientTransform="matrix(1 0 0 1 63.49 254.33)"
           gradientUnits="userSpaceOnUse"
           id="SVGID_26"><stop
             id="stop153"
             style="stop-color:rgb(188,204,220);stop-opacity: 1"
             offset="0%" /></linearGradient><path
           id="path156"
           stroke-linecap="round"
           d="m 70.625 295.943 c 9.517 9.517 24.933 9.517 34.45 0 c 9.546 -9.517 9.546 -24.933 0 -34.479 c -9.517 -9.517 -24.933 -9.517 -34.45 0 c -9.517 9.546 -9.517 24.933 0 34.479 z"
           transform=" translate(-87.86, -278.7)"
           style="stroke: none; stroke-width: 1; stroke-dasharray: none; stroke-linecap: butt; stroke-dashoffset: 0; stroke-linejoin: miter; stroke-miterlimit: 4; fill: #000000; fill-rule: evenodd; opacity: 1;" /></g><g
         id="g165"
         transform="matrix(1 0 0 1 -147.72 22.71)"><linearGradient
           y2="118.59355314625947"
           x2="77.75349999999997"
           y1="0"
           x1="0"
           gradientTransform="matrix(1 0 0 1 69.4 219.41)"
           gradientUnits="userSpaceOnUse"
           id="SVGID_27"><stop
             id="stop160"
             style="stop-color:rgb(43,77,102);stop-opacity: 1"
             offset="0%" /></linearGradient><path
           id="path163"
           stroke-linecap="round"
           d="m 129.78 320.648 c 23.166 -23.167 23.166 -60.724 0 -83.862 c -7.694 -7.722 -16.983 -12.851 -26.813 -15.416 c -7.978 -2.109 -16.327 -2.508 -24.448 -1.225 c 5.67 1.852 11.084 4.559 16.071 8.15 c 2.593 1.852 5.072 3.961 7.409 6.269 c 23.166 23.167 23.166 60.723 0 83.89 c -3.761 3.761 -7.921 6.924 -12.338 9.46 c -6.354 3.676 -13.221 6.041 -20.26 7.152 c 2.764 0.912 5.556 1.596 8.406 2.08 c 13.421 2.308 27.497 -0.029 39.636 -7.01 c 4.415 -2.563 8.576 -5.726 12.337 -9.488 z"
           transform=" translate(-108.28, -278.71)"
           style="stroke: none; stroke-width: 1; stroke-dasharray: none; stroke-linecap: butt; stroke-dashoffset: 0; stroke-linejoin: miter; stroke-miterlimit: 4; fill: #000000; fill-rule: evenodd; opacity: 1;" /></g><g
         id="g172"
         transform="matrix(1 0 0 1 -161.22 22.71)"><linearGradient
           y2="48.75366376792047"
           x2="34.91350000000003"
           y1="0"
           x1="0"
           gradientTransform="matrix(1 0 0 1 77.32 254.33)"
           gradientUnits="userSpaceOnUse"
           id="SVGID_28"><stop
             id="stop167"
             style="stop-color:rgb(221,218,236);stop-opacity: 1"
             offset="0%" /></linearGradient><path
           id="path170"
           stroke-linecap="round"
           d="m 105.075 295.943 c 9.546 -9.517 9.546 -24.933 0 -34.479 c -7.352 -7.352 -18.265 -9.033 -27.241 -4.987 c 2.422 1.168 4.702 2.736 6.696 4.759 c 9.546 9.517 9.546 24.933 0 34.451 c -2.137 2.166 -4.588 3.818 -7.209 5.015 c 9.062 4.331 20.26 2.764 27.754 -4.759 z"
           transform=" translate(-94.78, -278.71)"
           style="stroke: none; stroke-width: 1; stroke-dasharray: none; stroke-linecap: butt; stroke-dashoffset: 0; stroke-linejoin: miter; stroke-miterlimit: 4; fill: #000000; fill-rule: evenodd; opacity: 1;" /></g><g
         id="g179"
         transform="matrix(1 0 0 1 -168.12 22.7)"><linearGradient
           y2="63.756"
           x2="63.70976128213464"
           y1="0"
           x1="0"
           gradientTransform="matrix(1 0 0 1 56.02 246.82)"
           gradientUnits="userSpaceOnUse"
           id="SVGID_29"><stop
             id="stop174"
             style="stop-color:rgb(16,42,67);stop-opacity: 1"
             offset="0%" /></linearGradient><path
           id="path177"
           stroke-linecap="round"
           d="m 87.85 246.825 c -8.508 0 -16.509 3.315 -22.536 9.343 c -12.389 12.426 -12.389 32.644 0.008 45.078 c 6.02 6.02 14.02 9.335 22.528 9.335 c 8.509 0 16.509 -3.315 22.521 -9.327 c 6.031 -6.014 9.356 -14.011 9.362 -22.517 c 0.007 -8.519 -3.315 -16.537 -9.354 -22.577 c -6.02 -6.02 -14.02 -9.335 -22.529 -9.335 z m 11.922 43.815 c -3.187 3.187 -7.42 4.941 -11.922 4.941 c -4.501 0 -8.735 -1.755 -11.913 -4.934 c -6.567 -6.586 -6.567 -17.303 -0.008 -23.881 c 3.186 -3.186 7.42 -4.941 11.921 -4.941 c 4.502 0 8.735 1.755 11.922 4.941 c 3.203 3.204 4.966 7.451 4.962 11.96 c -0.003 4.495 -1.763 8.724 -4.962 11.914 z"
           transform=" translate(-87.88, -278.7)"
           style="stroke: none; stroke-width: 1; stroke-dasharray: none; stroke-linecap: butt; stroke-dashoffset: 0; stroke-linejoin: miter; stroke-miterlimit: 4; fill: #000000; fill-rule: nonzero; opacity: 1;" /></g><g
         id="g186"
         transform="matrix(1 0 0 1 -21 158.58)"><linearGradient
           y2="15.04400159983237"
           x2="15.012823789515949"
           y1="0"
           x1="0"
           gradientTransform="matrix(1 0 0 1 227.5 407.05)"
           gradientUnits="userSpaceOnUse"
           id="SVGID_30"><stop
             id="stop181"
             style="stop-color:rgb(16,42,67);stop-opacity: 1"
             offset="0%" /></linearGradient><path
           id="path184"
           stroke-linecap="round"
           d="m 240.279 409.26 c -2.917 -2.942 -7.636 -2.935 -10.578 -0.017 c -2.941 2.916 -2.934 7.693 -0.018 10.635 c 1.467 1.479 3.395 2.22 5.326 2.22 c 1.908 0 3.818 -0.724 5.28 -2.174 c 2.941 -2.916 2.962 -7.665 0.046 -10.606 z"
           transform=" translate(-235, -414.58)"
           style="stroke: none; stroke-width: 1; stroke-dasharray: none; stroke-linecap: butt; stroke-dashoffset: 0; stroke-linejoin: miter; stroke-miterlimit: 4; fill: #000000; fill-rule: nonzero; opacity: 1;" /></g><g
         id="g193"
         transform="matrix(1 0 0 1 0 0)"><linearGradient
           y2="511.9964504858625"
           x2="469.90899999999993"
           y1="0"
           x1="0"
           gradientTransform="matrix(1 0 0 1 21.05 0)"
           gradientUnits="userSpaceOnUse"
           id="SVGID_31"><stop
             id="stop188"
             style="stop-color:rgb(16,42,67);stop-opacity: 1"
             offset="0%" /></linearGradient><path
           id="path191"
           stroke-linecap="round"
           d="m 457.296 281.12 h -76.821 c -4.143 0 -7.5 3.358 -7.5 7.5 s 3.357 7.5 7.5 7.5 h 76.821 c 10.288 0 18.658 9.482 18.658 21.138 v 7.204 h -216.29 v -28.342 h 85.99 c 4.143 0 7.5 -3.358 7.5 -7.5 s -3.357 -7.5 -7.5 -7.5 h -88.389 c -6.948 0 -12.601 5.857 -12.601 13.057 v 32.228 c 0 7.2 5.652 13.057 12.601 13.057 h 79.755 c -3.155 3.995 -6.56 7.832 -10.203 11.475 c -14.267 14.267 -31.699 25.016 -50.705 31.356 c -8.278 -14.125 -23.61 -23.637 -41.13 -23.637 c -17.509 0 -32.833 9.5 -41.114 23.611 c -18.974 -6.335 -36.381 -17.076 -50.634 -31.329 c -5.768 -5.769 -10.95 -12.026 -15.478 -18.657 c 2.556 -1.906 5.01 -4.009 7.329 -6.328 c 12.62 -12.621 19.571 -29.4 19.571 -47.245 c 0 -17.844 -6.95 -34.613 -19.568 -47.22 c -6.586 -6.595 -14.316 -11.624 -22.734 -14.941 c 5.11 -14.792 12.758 -28.32 22.818 -40.362 l 70.196 58.508 c 2.279 1.915 5.101 2.938 8.047 2.938 c 0.383 0 0.768 -0.017 1.154 -0.052 c 1.998 -0.18 3.876 -0.827 5.525 -1.857 l 10.261 8.567 c 3.963 3.299 8.78 4.908 13.569 4.908 c 6.075 0 12.104 -2.59 16.28 -7.606 l 1.184 -1.42 l 14.467 12.065 c 4.596 3.832 10.214 5.711 15.931 5.711 c 7.062 0 14.273 -2.871 19.879 -8.477 c 4.604 -4.605 6.971 -10.874 6.664 -17.654 c -0.336 -7.41 -3.789 -14.376 -9.468 -19.108 l -14.482 -12.096 l 1.179 -1.414 c 3.62 -4.327 5.333 -9.823 4.823 -15.477 c -0.51 -5.652 -3.179 -10.753 -7.506 -14.355 l -10.295 -8.598 c 0.73 -1.839 1.025 -3.836 0.827 -5.863 c -0.326 -3.347 -1.937 -6.357 -4.472 -8.424 l -20.743 -17.297 l -0.001 -0.001 l -84.305 -70.261 c -6.75 -5.646 -15.321 -8.319 -24.149 -7.53 c -7.426 0.666 -14.243 3.723 -19.592 8.702 l -25.985 -21.699 l 0.113 -0.135 c 8.249 -9.851 6.935 -24.586 -2.941 -32.858 c -4.776 -3.984 -10.835 -5.866 -17.054 -5.304 c -6.219 0.564 -11.837 3.506 -15.82 8.281 l -36.76 44.055 c -3.981 4.774 -5.867 10.828 -5.308 17.045 c 0.56 6.218 3.493 11.831 8.258 15.801 c 4.356 3.634 9.661 5.407 14.939 5.407 c 6.679 0 13.315 -2.841 17.926 -8.345 c 0.003 -0.004 0.007 -0.008 0.01 -0.013 l 0.119 -0.143 l 25.994 21.685 c -7.45 11.649 -6.783 26.683 1.305 37.573 c -19.007 22.579 -32.254 49.465 -38.603 78.337 c -5.712 3.065 -11.005 6.985 -15.717 11.697 c -12.623 12.608 -19.575 29.38 -19.575 47.226 c 0 17.845 6.951 34.624 19.575 47.248 c 9.163 9.152 20.346 15.072 32.123 17.787 c 8.559 16.447 19.613 31.499 32.897 44.785 c 22.701 22.702 50.843 38.96 81.692 47.267 v 19.689 h -50.743 c -4.143 0 -7.5 3.358 -7.5 7.5 s 3.357 7.5 7.5 7.5 h 280.215 c 0.074 0 0.193 0.119 0.193 0.193 v 26.13 c 0 0.074 -0.119 0.194 -0.193 0.194 h -363.647 c -0.074 0 -0.193 -0.12 -0.193 -0.194 v -26.13 c 0 -0.074 0.119 -0.193 0.193 -0.193 h 48.612 c 4.143 0 7.5 -3.358 7.5 -7.5 s -3.357 -7.5 -7.5 -7.5 h -48.612 c -8.378 0 -15.193 6.816 -15.193 15.193 v 26.13 c 0 8.378 6.815 15.194 15.193 15.194 h 363.647 c 8.378 0 15.193 -6.816 15.193 -15.194 v -26.13 c 0 -8.377 -6.815 -15.193 -15.193 -15.193 h -134.174 v -19.659 c 30.897 -8.311 59.059 -24.58 81.748 -47.297 c 14.43 -14.431 26.206 -30.921 35.062 -49.066 h 78.942 c 6.933 0 12.572 -5.857 12.572 -13.057 v -9.147 c -0.001 -19.923 -15.099 -36.134 -33.659 -36.134 z m -158.045 -56.894 c 2.419 2.016 3.949 5.107 4.092 8.27 c 0.081 1.782 -0.25 4.333 -2.286 6.369 c -4.026 4.025 -10.673 5.955 -15.596 1.851 l -14.467 -12.063 l 7.623 -9.14 l 6.156 -7.378 z m -15.983 -43.339 c 1.252 1.042 2.023 2.527 2.173 4.182 c 0.149 1.656 -0.344 3.256 -1.396 4.513 l -35.366 42.406 c -2.145 2.574 -6.141 2.928 -8.721 0.779 l -9.775 -8.161 l 43.278 -51.909 z m -144.51 -108.131 c 3.093 -3.707 7.468 -5.988 12.318 -6.423 c 0.559 -0.05 1.114 -0.075 1.668 -0.075 c 4.229 0 8.269 1.453 11.527 4.179 l 103.203 86.018 l -54.344 65.182 l -103.204 -86.019 c -7.667 -6.376 -8.701 -17.821 -2.312 -25.506 z m -82.75 -0.038 c -2.954 3.519 -8.224 3.988 -11.754 1.042 c -1.686 -1.405 -2.725 -3.402 -2.925 -5.624 c -0.2 -2.229 0.47 -4.394 1.887 -6.092 l 36.759 -44.055 c 1.419 -1.701 3.428 -2.749 5.657 -2.951 c 0.261 -0.024 0.521 -0.036 0.779 -0.036 c 1.948 0 3.81 0.667 5.3 1.91 c 3.523 2.952 4 8.208 1.051 11.73 z m 21.241 -2.051 l 17.304 -20.752 l 25.775 21.524 l -17.291 20.741 z m 28.625 81.099 l 17.781 14.82 c -11.331 13.621 -20.125 29.324 -25.806 46.064 c -3.277 -0.489 -6.614 -0.739 -9.988 -0.739 c -4.936 0 -9.786 0.551 -14.493 1.587 c 6.38 -22.614 17.446 -43.655 32.506 -61.732 z m -54.65 163.579 c -9.788 -9.788 -15.179 -22.8 -15.179 -36.639 c 0 -13.837 5.39 -26.84 15.179 -36.617 c 9.787 -9.788 22.799 -15.179 36.637 -15.179 c 13.836 0 26.839 5.39 36.612 15.175 c 0.002 0.002 0.004 0.004 0.007 0.007 c 9.785 9.773 15.175 22.776 15.175 36.613 c 0 13.839 -5.391 26.851 -15.179 36.639 c -20.185 20.185 -53.046 20.183 -73.252 0.001 z m 136.109 90.96 v 13.886 c -26.782 -7.913 -51.207 -22.392 -71.085 -42.271 c -9.846 -9.847 -18.353 -20.747 -25.398 -32.517 c 8.177 -0.363 16.292 -2.23 23.912 -5.572 c 5.196 7.736 11.176 15.022 17.863 21.711 c 15.72 15.72 34.884 27.612 55.784 34.713 c -0.699 3.242 -1.076 6.602 -1.076 10.05 z m 80.298 49.178 h -65.298 v -49.177 c 0 -18.003 14.646 -32.65 32.648 -32.65 c 18.003 0 32.649 14.647 32.649 32.65 v 49.177 z m 86.137 -77.559 c -19.869 19.893 -44.312 34.382 -71.137 42.298 v -13.917 c 0 -3.438 -0.375 -6.788 -1.069 -10.021 c 20.935 -7.104 40.126 -19.007 55.862 -34.742 c 6.806 -6.807 12.889 -14.22 18.128 -22.081 h 27.016 c -7.661 14.074 -17.312 26.975 -28.8 38.463 z"
           transform=" translate(-256, -256)"
           style="stroke: none; stroke-width: 1; stroke-dasharray: none; stroke-linecap: butt; stroke-dashoffset: 0; stroke-linejoin: miter; stroke-miterlimit: 4; fill: #000000; fill-rule: nonzero; opacity: 1;" /></g></g></g><g
     id="logo-name"
     style=""
     transform="matrix(2.25 0 0 2.25 338.63 223.63)"><linearGradient
       y2="33.89999999999999"
       x2="0"
       y1="0"
       x1="0"
       gradientTransform="matrix(1 0 0 1 -86.29 -16.95)"
       gradientUnits="userSpaceOnUse"
       id="SVGID_2"><stop
         id="stop198"
         style="stop-color:rgb(188,204,220);stop-opacity: 1"
         offset="0%" /></linearGradient><text
       id="text203"
       style="stroke: none; stroke-width: 1; stroke-dasharray: none; stroke-linecap: butt; stroke-dashoffset: 0; stroke-linejoin: miter; stroke-miterlimit: 4; fill: #ffffff; fill-rule: nonzero; opacity: 1; white-space: pre;"
       font-weight="normal"
       font-style="normal"
       font-size="30"
       font-family="Princess Sofia"
       xml:space="preserve"><tspan
         id="tspan201"
         y="9.42"
         x="-86.29">AI-DocHelper</tspan></text>
</g></svg>